<svg width="24" height="24" viewBox="0 0 24 24" fill="none" xmlns="http://www.w3.org/2000/svg">
<path fill-rule="evenodd" clip-rule="evenodd" d="M22 5.92913C21.4315 6.75914 20.7474 7.46598 19.9439 8.04775C19.9515 8.16714 19.9572 8.34338 19.9572 8.58025C19.9572 9.68126 19.7961 10.7804 19.4739 11.8757C19.1518 12.971 18.6629 14.0227 18.0091 15.029C17.3534 16.0352 16.5727 16.9259 15.6669 17.6991C14.7629 18.4722 13.6695 19.09 12.3942 19.5505C11.1169 20.0148 9.74872 20.2441 8.29524 20.2441C6.00227 20.2441 3.90449 19.6301 2 18.404C2.29752 18.4381 2.62536 18.4533 2.99109 18.4533C4.89369 18.4533 6.58973 17.8715 8.07921 16.7042C7.19234 16.6871 6.39644 16.4124 5.69339 15.8855C4.99034 15.3568 4.509 14.6803 4.24749 13.8617C4.52606 13.9034 4.78378 13.9242 5.02066 13.9242C5.3826 13.9242 5.74455 13.8768 6.09892 13.7859C5.15141 13.5907 4.36688 13.1188 3.74531 12.3684C3.12374 11.6218 2.81296 10.7519 2.81296 9.76085V9.71158C3.38905 10.0318 4.00493 10.2062 4.66629 10.2327C4.10726 9.85939 3.66193 9.37237 3.3322 8.77165C3.00436 8.17283 2.83949 7.52094 2.83949 6.81789C2.83949 6.07315 3.02331 5.38336 3.39663 4.74853C4.41994 6.01061 5.66496 7.01876 7.1336 7.77677C8.60224 8.53288 10.1732 8.95547 11.8484 9.03885C11.7783 8.7167 11.7461 8.40402 11.7461 8.10081C11.7461 6.9657 12.1459 5.99924 12.9456 5.19955C13.7453 4.39985 14.7099 4 15.845 4C17.0294 4 18.028 4.43206 18.8391 5.2943C19.762 5.11616 20.628 4.78643 21.441 4.3051C21.1283 5.27724 20.5276 6.03146 19.6388 6.56396C20.4271 6.47868 21.2136 6.26833 22 5.92913Z" fill="#201E24"/>
</svg>
