<svg viewBox="0 0 24 24" fill="none" xmlns="http://www.w3.org/2000/svg">
<path d="M7.01776 17.3892L17.9759 4.46038M12 19V22M12 22H8.5M12 22H15.5M17.5173 4.03422C21.0883 7.08136 21.5129 12.4464 18.4658 16.0173C15.4186 19.5883 10.0536 20.0129 6.48267 16.9658C2.91172 13.9186 2.48708 8.55362 5.53422 4.98267C8.58136 1.41172 13.9464 0.987083 17.5173 4.03422ZM18.4087 15.9932C18.0448 12.9901 16.5963 10.1099 14.1137 7.9915C11.6463 5.88602 8.5964 4.90768 5.59131 5.00684C5.9552 8.00993 7.40371 10.8901 9.88626 13.0085C12.3537 15.114 15.4036 16.0923 18.4087 15.9932Z" stroke="currentColor" stroke-width="1.5" stroke-linecap="round" stroke-linejoin="round"/>
</svg>
