<svg  viewBox="0 0 24 24" fill="none" xmlns="http://www.w3.org/2000/svg">
<path fill-rule="evenodd" clip-rule="evenodd" d="M9.56176 7.57573H6.81203V4.74006C6.81203 4.39635 6.55424 4.05263 6.1246 4.05263C5.69495 4.05263 5.52309 4.39635 5.52309 4.74006V7.57573H2.68743C2.34372 7.57573 2 7.83351 2 8.26316C2 8.6928 2.25779 8.95059 2.68743 8.95059H5.52309V11.7863C5.52309 12.13 5.78088 12.4737 6.21053 12.4737C6.64017 12.4737 6.89796 12.2159 6.89796 11.7863V8.86466H9.73362C10.0773 8.86466 10.4211 8.60687 10.4211 8.17723C10.4211 7.74758 9.99141 7.57573 9.56176 7.57573ZM21.9413 3.08284V3H21.8595C21.7777 3 14.3345 3.9941 10.0812 12.6925C6.97307 18.9884 7.13666 20.8938 7.38204 20.8938C7.62742 20.9766 10.163 15.5091 12.8622 13.2724C17.1155 12.3611 18.2606 10.2901 18.2606 10.2901C18.2606 10.2901 17.0337 10.4558 16.5429 10.4558C15.8886 10.4558 15.3978 10.2901 15.1524 10.2072C16.2157 9.21313 17.1155 8.9646 18.0152 8.79892C18.7513 8.63324 19.4875 8.46755 20.469 7.80482C22.2685 6.47935 22.0231 3.24853 21.9413 3.08284Z" fill="currentColor"/>
</svg>
