<svg width="24" height="24" viewBox="0 0 24 24" fill="none" xmlns="http://www.w3.org/2000/svg">
<path d="M12 9V13M12 17H12.01M10.29 3.86L1.82001 18C1.64537 18.3024 1.55297 18.6453 1.55199 18.9945C1.55102 19.3437 1.6415 19.6871 1.81443 19.9905C1.98737 20.2939 2.23673 20.5467 2.53771 20.7239C2.8387 20.901 3.1808 20.9962 3.53001 21H20.47C20.8192 20.9962 21.1613 20.901 21.4623 20.7239C21.7633 20.5467 22.0126 20.2939 22.1856 19.9905C22.3585 19.6871 22.449 19.3437 22.448 18.9945C22.447 18.6453 22.3546 18.3024 22.18 18L13.71 3.86C13.5317 3.56611 13.2807 3.32312 12.9812 3.15448C12.6817 2.98585 12.3437 2.89725 12 2.89725C11.6563 2.89725 11.3183 2.98585 11.0188 3.15448C10.7193 3.32312 10.4683 3.56611 10.29 3.86Z" stroke="#201E24" stroke-width="1.5" stroke-linecap="round" stroke-linejoin="round"/>
</svg>
